<?xml version="1.0" encoding="utf-8"?>
<!-- Generator: Adobe Illustrator 26.5.0, SVG Export Plug-In . SVG Version: 6.00 Build 0)  -->
<svg version="1.1" id="Слой_1" xmlns="http://www.w3.org/2000/svg" xmlns:xlink="http://www.w3.org/1999/xlink" x="0px" y="0px"
	 viewBox="0 0 138 138" style="enable-background:new 0 0 138 138;" xml:space="preserve">
<style type="text/css">
	.st0{fill:none;stroke:#2E3546;stroke-dasharray:2,2;}
	.st1{fill-rule:evenodd;clip-rule:evenodd;fill:#D1345B;stroke:#151515;stroke-width:1.5;}
	.st2{fill:none;stroke:#151515;}
	.st3{fill-rule:evenodd;clip-rule:evenodd;fill:#34D1BF;stroke:#151515;stroke-width:1.5;}
	.st4{fill:none;stroke:#6E778A;stroke-linecap:round;stroke-linejoin:round;}
	.st5{fill-rule:evenodd;clip-rule:evenodd;fill:#532DF5;stroke:#151515;stroke-width:1.5;}
</style>
<g id="Dashboard-v.2">
	<g id="Dashboard" transform="translate(-789.000000, -568.000000)">
		<g id="Group-6-Copy" transform="translate(721.000000, 533.000000)">
			<g id="icon-help" transform="translate(69.000000, 36.000000)">
				<path id="Oval" class="st0" d="M68,136c37.6,0,68-30.4,68-68S105.6,0,68,0S0,30.4,0,68S30.4,136,68,136z"/>
				
					<g id="nucleus-copy-29" transform="translate(118.000000, 114.000000) rotate(-90.000000) translate(-118.000000, -114.000000) ">
					<circle class="st1" cx="118" cy="114" r="2.2"/>
					<g>
						<circle id="path-1" class="st2" cx="118" cy="114" r="3"/>
					</g>
				</g>
				
					<g id="nucleus-copy-29_00000016776834868271005070000013051542516681257386_" transform="translate(14.000000, 26.000000) rotate(-90.000000) translate(-14.000000, -26.000000) ">
					<circle class="st3" cx="14" cy="26" r="2.2"/>
					<g>
						<circle id="path-2" class="st2" cx="14" cy="26" r="3"/>
					</g>
				</g>
				<g id="viral-marketing" transform="translate(34.000000, 29.000000)">
					<g id="Group-5" transform="translate(0.000000, 3.000000)">
						<path id="Path-278" class="st4" d="M61.1,0v12.6c2.3,0,3.9,0,4.7,0c1.2,0,1.7,0.7,1.7,1.9s0,34.1,0,35.2c0,1.1-0.8,2.2-2,2.2
							s-47.6,0-48.9,0s-2.2-0.5-2.2-2.1s0-33.3,0-34.8s1.2-2.6,2.6-2.6s29.9,0,30.9,0c1,0,1.5-0.4,2.4-1.4
							C50.9,10.3,54.5,6.6,61.1,0z"/>
						<path id="Path-278-Copy" class="st4" d="M6.4,73.9V61.2c-2.3,0-3.9,0-4.7,0c-1.2,0-1.7-0.7-1.7-1.9c0-1.2,0-34.1,0-35.2
							C0,23.1,0.8,22,2,22c1.1,0,47.6,0,48.9,0c1.3,0,2.2,0.5,2.2,2.1c0,1.6,0,33.3,0,34.8c0,1.5-1.2,2.6-2.6,2.6s-29.9,0-30.9,0
							c-1,0-1.5,0.4-2.4,1.4C16.6,63.6,13,67.2,6.4,73.9z"/>
					</g>
					<polygon id="Triangle" class="st4" points="41.2,39.5 28,45.5 28,33.5 					"/>
					<g id="Oval-Copy-121" transform="translate(41.000000, 39.500000) rotate(-90.000000) translate(-41.000000, -39.500000) ">
						<circle class="st5" cx="41" cy="39.5" r="2.2"/>
						<g>
							<circle id="path-3" class="st2" cx="41" cy="39.5" r="3"/>
						</g>
					</g>
					<g id="Oval-Copy-122" transform="translate(28.000000, 45.500000) rotate(-90.000000) translate(-28.000000, -45.500000) ">
						<circle class="st1" cx="28" cy="45.5" r="2.2"/>
						<g>
							<circle id="path-4" class="st2" cx="28" cy="45.5" r="3"/>
						</g>
					</g>
					<g id="Oval-Copy-123" transform="translate(28.000000, 33.500000) rotate(-90.000000) translate(-28.000000, -33.500000) ">
						<circle class="st3" cx="28" cy="33.5" r="2.2"/>
						<g>
							<circle id="path-5" class="st2" cx="28" cy="33.5" r="3"/>
						</g>
					</g>
					<g id="Oval-Copy-124" transform="translate(61.000000, 3.000000) rotate(-90.000000) translate(-61.000000, -3.000000) ">
						<circle class="st3" cx="61" cy="3" r="2.2"/>
						<g>
							<circle id="path-6" class="st2" cx="61" cy="3" r="3"/>
						</g>
					</g>
					<g id="Oval-Copy-126" transform="translate(6.500000, 76.000000) rotate(-90.000000) translate(-6.500000, -76.000000) ">
						<circle class="st5" cx="6.5" cy="76" r="2.2"/>
						<g>
							<circle id="path-7" class="st2" cx="6.5" cy="76" r="3"/>
						</g>
					</g>
				</g>
			</g>
		</g>
	</g>
</g>
</svg>
