<?xml version="1.0" encoding="utf-8"?>
<!-- Generator: Adobe Illustrator 26.5.0, SVG Export Plug-In . SVG Version: 6.00 Build 0)  -->
<svg version="1.1" id="Слой_1" xmlns="http://www.w3.org/2000/svg" xmlns:xlink="http://www.w3.org/1999/xlink" x="0px" y="0px"
	 viewBox="0 0 138 138" style="enable-background:new 0 0 138 138;" xml:space="preserve">
<style type="text/css">
	.st0{fill:none;stroke:#6E778A;stroke-miterlimit:10;}
	.st1{fill:none;stroke:#495263;stroke-dasharray:2,2;}
	.st2{fill-rule:evenodd;clip-rule:evenodd;fill:#43FFE4;stroke:#151515;stroke-width:1.5;}
	.st3{fill:none;stroke:#151515;}
	.st4{fill-rule:evenodd;clip-rule:evenodd;fill:#34D1BF;stroke:#151515;stroke-width:1.5;}
	.st5{fill:none;stroke:#6E778A;stroke-linecap:round;stroke-linejoin:round;}
</style>
<path class="st0" d="M106.9,82.8c-1.2-0.5-2.5-0.8-4-0.8c-1.6,0-3.1,0.4-4.5,1l0.1,0l-16.2,7.3c0-0.1,0.1-0.2,0.1-0.4
	c0-3.8-3.2-6.9-7-6.9c-0.2,0-0.4,0-0.6,0l0,0H64.2l-13.3-3.9C50.8,79,50.6,79,50.3,79c0,0,0,0,0,0h-6.1v-2.1c0-1.2-0.9-2.1-2.1-2.1
	H31.3c-1.2,0-2.1,0.9-2.1,2.1l0,0V111c0,1.2,0.9,2.1,2.1,2.1h10.9c1.2,0,2.1-0.9,2.1-2.1l0,0v-2.8c5.1,0.8,9.6,2.1,13.9,3.8
	l-0.4-0.2c3.2,1.2,6.9,1.8,10.8,1.8c0,0,0,0,0.1,0h0c0,0,0,0,0,0c4.5,0,8.8-0.9,12.7-2.5l-0.2,0.1c3.5-1.5,6.4-3.2,9.2-5l-0.2,0.1
	c0.9-0.6,1.9-1.2,2.8-1.7c4.6-2.7,8.2-5.1,11.5-7.5c1.6-1.2,3-2.3,4.4-3.5l0,0c1-0.8,1.9-1.9,2.4-3.1l0-0.1c0.1-0.2,0.1-0.5,0.1-0.7
	c0-0.2,0-0.3-0.1-0.5l0,0C111,86.5,109.3,84.2,106.9,82.8L106.9,82.8L106.9,82.8z M40.1,108.9h-6.7V79h6.7V108.9z M105.9,90.8
	c-1.2,1-2.4,2-3.7,3l-0.1,0.1c-3.2,2.3-6.8,4.6-11.2,7.3c-1,0.6-1.9,1.2-2.9,1.8c-2.4,1.6-5.1,3.1-8,4.4l-0.4,0.1
	c-3.2,1.3-7,2.1-10.9,2.1c-3.4,0-6.6-0.6-9.6-1.6l0.2,0.1c-4.3-1.8-9.4-3.2-14.7-3.9l-0.3,0V83.2H50l13.3,3.9
	c0.2,0.1,0.4,0.1,0.6,0.1c0,0,0,0,0,0h10.9c2.5,0,3.3,1.5,3.3,2.7c0,1.3-0.9,2.7-3.3,2.7h-19c-1.2,0-2.1,0.9-2.1,2.1
	c0,1.2,0.9,2.1,2.1,2.1l0,0h21.8c0,0,0,0,0,0c0.3,0,0.6-0.1,0.9-0.2l0,0l21.8-9.8c0.8-0.4,1.7-0.6,2.7-0.6c0.7,0,1.5,0.1,2.1,0.3
	l0,0c1.1,0.6,1.8,1.7,2.1,2.9l0,0C106.7,90,106.3,90.4,105.9,90.8L105.9,90.8L105.9,90.8z"/>
<g>
	<g id="Layer_5_88_">
		<g>
			<path class="st0" d="M78.5,63.7c0-7.1,5.7-12.8,12.8-12.8c1.5,0,2.5,0.2,3.5,0.5c0.7,0.3,0.9-0.3,1-0.5c0.5-1.7,0.7-3.5,0.7-5.3
				c0-0.1-0.1-15.3-0.1-15.5c0-1.5-0.9-1.5-1.2-1.5c-2.7,0-5.5,0-8.5-0.8c-6.1-1.8-11.5-6.5-13.6-6.5c-2,0-6,4.8-12.1,6.5
				c-3.4,1-6.8,0.8-9.8,0.7c-0.4,0-0.9-0.1-1.1,1.1c0,0.3-0.3,15.8-0.3,16c0,15.1,18.7,29.3,23.4,29.3c1.5,0,3.9-1.2,7.2-3.6
				c0.4-0.4,0.2-0.6,0.1-0.8C79.2,68.4,78.5,66.1,78.5,63.7z"/>
			<path class="st0" d="M76.5,58.1c1.3-4.9,6.2-9.1,12.2-9.7c1.3-0.1,2.7-0.1,3.6,0.1c1.6,0.1,0.8-3.6,0.8-3.8c0.1-0.7,0,1.1,0-0.2
				c0-0.1-0.1-11-0.1-11.2c0-1.1-0.7-1.1-1.1-1.1c-2.3,0-4.7,0-7.2-0.6c-5.2-1.3-9.8-4.7-11.6-4.7c-1.7,0-5.1,3.5-10.3,4.7
				c-2.9,0.7-5.7,0.6-8.4,0.5c-0.3,0-0.8-0.1-1,0.8c0,0.2-0.2,11.4-0.2,11.5c0,10.9,15.9,27.1,19.9,27.1c1.3,0,0.5,0.3,3.3-1.4
				c0.3-0.2-0.6-4.3-1-6.3c-0.1-0.7,0-1.8,0.1-2.6C76,59.2,76.2,59.5,76.5,58.1z"/>
			<path class="st0" d="M91.4,70.2c-0.4,0.5-1.2,0.5-1.7,0.2l-8.1-6c-0.5-0.4-0.6-1.1-0.2-1.6l1-1.4c0.4-0.5,1.1-0.6,1.6-0.2
				l5.2,3.8c0.5,0.4,1.3,0.3,1.7-0.2l7.4-7.7c0.4-0.5,1.2-0.5,1.6-0.1l1.3,1.2c0.5,0.4,0.5,1.2,0.1,1.6L91.4,70.2z"/>
		</g>
	</g>
</g>
<g id="Dashboard-v.2">
	<g id="Dashboard" transform="translate(-499.000000, -568.000000)">
		<g id="Group-6" transform="translate(431.000000, 533.000000)">
			<g id="icon-knowledgebase" transform="translate(69.000000, 36.000000)">
				<path id="Oval" class="st1" d="M129.5,97c16-34,1.5-74.5-32.4-90.5S22.6,5,6.5,39S5,113.4,39,129.5S113.4,131,129.5,97z"/>
				<g id="nucleus-copy-29" transform="translate(44.000000, 132.000000) rotate(-90.000000) translate(-44.000000, -132.000000) ">
					<circle class="st2" cx="59" cy="203.6" r="2.2"/>
					<g>
						<circle id="path-1" class="st3" cx="59" cy="203.6" r="3"/>
					</g>
				</g>
				
					<g id="nucleus-copy-29_00000018195021310708265620000002122003224665927608_" transform="translate(90.000000, 4.000000) rotate(-90.000000) translate(-90.000000, -4.000000) ">
					<circle class="st4" cx="73.2" cy="-66.5" r="2.2"/>
					<g>
						<circle id="path-2" class="st3" cx="73.2" cy="-66.5" r="3"/>
					</g>
				</g>
				<g id="reading-book" transform="translate(27.000000, 31.000000)">
					<path id="Path-338_00000161594852721174028720000000596425672562204577_" class="st5" d="M25.6,30.5"/>
					<path id="Path-338_00000062149780684323368680000016794496768465504142_" class="st5" d="M23.3-4"/>
					<g id="nucleus-copy-25" transform="translate(70.500000, 3.000000) rotate(-90.000000) translate(-70.500000, -3.000000) ">
						<circle class="st2" cx="77.7" cy="-44.6" r="2.2"/>
						<g>
							<circle id="path-3" class="st3" cx="77.7" cy="-44.6" r="3"/>
						</g>
					</g>
					
						<g id="nucleus-copy-29_00000137854225381419236700000011993864161190175905_" transform="translate(3.000000, 62.000000) rotate(-90.000000) translate(-3.000000, -62.000000) ">
						<circle class="st4" cx="-17" cy="106.4" r="2.2"/>
						<g>
							<circle id="path-5" class="st3" cx="-17" cy="106.4" r="3"/>
						</g>
					</g>
				</g>
			</g>
		</g>
	</g>
</g>
<g id="SVGRepo_bgCarrier">
</g>
</svg>
