<?xml version="1.0" encoding="utf-8"?>
<!-- Generator: Adobe Illustrator 26.5.0, SVG Export Plug-In . SVG Version: 6.00 Build 0)  -->
<svg version="1.1" id="Слой_1" xmlns="http://www.w3.org/2000/svg" xmlns:xlink="http://www.w3.org/1999/xlink" x="0px" y="0px"
	 viewBox="0 0 138 138" style="enable-background:new 0 0 138 138;" xml:space="preserve">
<style type="text/css">
	.st0{fill:none;stroke:#6E778A;stroke-miterlimit:10;}
	.st1{fill:none;stroke:#495263;stroke-dasharray:2,2;}
	.st2{fill-rule:evenodd;clip-rule:evenodd;fill:#43FFE4;stroke:#151515;stroke-width:1.5;}
	.st3{fill:none;stroke:#151515;}
	.st4{fill-rule:evenodd;clip-rule:evenodd;fill:#34D1BF;stroke:#151515;stroke-width:1.5;}
	.st5{fill:none;stroke:#6E778A;stroke-linecap:round;stroke-linejoin:round;}
</style>
<g id="SVGRepo_iconCarrier_00000015327535019847365650000017164123863494624388_">
	<g>
		<g>
			<g>
				<path class="st0" d="M37.8,35.7c0.1,0.1,0.2,0.2,0.3,0.2s0.2-0.1,0.3-0.2l4.7-7.2c0.1-0.1,1.5-2.1,1.5-4.9
					c0-3.6-2.9-6.5-6.5-6.5s-6.5,2.9-6.5,6.5c0,2.4,1.4,4.8,1.5,4.9L37.8,35.7z"/>
				<path class="st0" d="M38.1,26.6c1.6,0,2.9-1.3,2.9-2.9c0-1.6-1.3-2.9-2.9-2.9s-2.9,1.3-2.9,2.9C35.3,25.3,36.6,26.6,38.1,26.6z"
					/>
			</g>
		</g>
	</g>
</g>
<g>
	<g>
		<path class="st0" d="M101.2,37.1C92.7,28.7,81.4,24,69.4,24s-23.3,4.7-31.8,13.2c-8.5,8.5-13.2,19.8-13.2,31.8s4.7,23.3,13.2,31.8
			c8.5,8.5,19.8,13.2,31.8,13.2s23.3-4.7,31.8-13.2s13.2-19.8,13.2-31.8S109.7,45.6,101.2,37.1z M64.6,27.1
			c-5.5,4.2-10.3,9.2-14.1,14.7c-2.8-1.5-5.3-3.3-7.7-5.5C49,31.2,56.6,28,64.6,27.1z M39.6,39.2c0.3-0.3,0.7-0.6,1-1
			c2.5,2.3,5.3,4.4,8.3,6c-4.6,7.4-7.1,15.5-7.4,23.3H27.3C27.7,56.8,32,46.8,39.6,39.2z M39.6,98.7c-7.6-7.6-12-17.6-12.3-28.4
			h14.2c0.3,7.9,2.8,15.9,7.4,23.3c-3,1.6-5.8,3.6-8.3,6C40.3,99.4,40,99,39.6,98.7z M42.8,101.6c2.4-2.2,5-4,7.7-5.5
			c3.8,5.5,8.5,10.5,14.1,14.7C56.5,109.9,49,106.7,42.8,101.6z M68,109.8c-5.9-4.2-11-9.3-14.9-15c4.7-2.1,9.7-3.3,14.9-3.5V109.8z
			 M68,88.5c-5.8,0.2-11.4,1.5-16.5,3.9c-4.4-7-6.8-14.6-7.1-22H68V88.5L68,88.5z M68,67.5H44.4c0.3-7.4,2.7-15,7.1-22
			c5.1,2.4,10.7,3.7,16.5,3.9V67.5z M68,46.6c-5.2-0.2-10.3-1.4-14.9-3.5c3.9-5.7,9-10.8,14.9-15V46.6z M99.2,39.2
			c7.6,7.6,12,17.6,12.3,28.4H97.3c-0.3-7.9-2.8-15.9-7.4-23.3c3-1.6,5.8-3.6,8.3-6C98.5,38.5,98.9,38.8,99.2,39.2z M96.1,36.3
			c-2.4,2.2-5,4-7.7,5.5c-3.8-5.5-8.5-10.5-14.1-14.7C82.3,28,89.8,31.2,96.1,36.3z M70.9,28.1c5.9,4.2,11,9.3,14.9,15
			c-4.7,2.1-9.7,3.3-14.9,3.5V28.1z M70.9,49.4c5.8-0.2,11.4-1.5,16.5-3.9c4.4,7,6.8,14.6,7.1,22H70.9V49.4z M70.9,70.4h23.6
			c-0.3,7.4-2.7,15-7.1,22c-5.1-2.4-10.7-3.7-16.5-3.9L70.9,70.4L70.9,70.4z M70.9,91.3c5.2,0.2,10.3,1.4,14.9,3.5
			c-3.9,5.7-9,10.8-14.9,15V91.3z M74.3,110.8c5.5-4.2,10.3-9.2,14.1-14.7c2.8,1.5,5.3,3.3,7.7,5.5
			C89.8,106.7,82.3,109.9,74.3,110.8z M99.2,98.7c-0.3,0.3-0.7,0.6-1,1c-2.5-2.3-5.3-4.4-8.3-6c4.6-7.4,7.1-15.5,7.4-23.3h14.2
			C111.2,81.1,106.8,91.1,99.2,98.7z"/>
	</g>
</g>
<g id="Dashboard-v.2">
	<g id="Dashboard" transform="translate(-499.000000, -568.000000)">
		<g id="Group-6" transform="translate(431.000000, 533.000000)">
			<g id="icon-knowledgebase" transform="translate(69.000000, 36.000000)">
				<path id="Oval" class="st1" d="M68,136c37.6,0,68-30.4,68-68S105.6,0,68,0S0,30.4,0,68S30.4,136,68,136z"/>
				<g id="nucleus-copy-29" transform="translate(44.000000, 132.000000) rotate(-90.000000) translate(-44.000000, -132.000000) ">
					<circle class="st2" cx="44" cy="132" r="2.2"/>
					<g>
						<circle id="path-1" class="st3" cx="44" cy="132" r="3"/>
					</g>
				</g>
				
					<g id="nucleus-copy-29_00000018195021310708265620000002122003224665927608_" transform="translate(90.000000, 4.000000) rotate(-90.000000) translate(-90.000000, -4.000000) ">
					<circle class="st4" cx="90" cy="4" r="2.2"/>
					<g>
						<circle id="path-2" class="st3" cx="90" cy="4" r="3"/>
					</g>
				</g>
				<g id="reading-book" transform="translate(27.000000, 31.000000)">
					<path id="Path-338_00000161594852721174028720000000596425672562204577_" class="st5" d="M40.3,20.3"/>
					<path id="Path-338_00000062149780684323368680000016794496768465504142_" class="st5" d="M70.5,3.5"/>
					<g id="nucleus-copy-25" transform="translate(70.500000, 3.000000) rotate(-90.000000) translate(-70.500000, -3.000000) ">
						<circle class="st2" cx="70.5" cy="3" r="2.2"/>
						<g>
							<circle id="path-3" class="st3" cx="70.5" cy="3" r="3"/>
						</g>
					</g>
					
						<g id="nucleus-copy-29_00000137854225381419236700000011993864161190175905_" transform="translate(3.000000, 62.000000) rotate(-90.000000) translate(-3.000000, -62.000000) ">
						<circle class="st4" cx="3" cy="62" r="2.2"/>
						<g>
							<circle id="path-5" class="st3" cx="3" cy="62" r="3"/>
						</g>
					</g>
				</g>
			</g>
		</g>
	</g>
</g>
<g id="SVGRepo_bgCarrier">
</g>
</svg>
