<?xml version="1.0" encoding="utf-8"?>
<!-- Generator: Adobe Illustrator 26.5.0, SVG Export Plug-In . SVG Version: 6.00 Build 0)  -->
<svg version="1.1" id="Слой_1" xmlns="http://www.w3.org/2000/svg" xmlns:xlink="http://www.w3.org/1999/xlink" x="0px" y="0px"
	 viewBox="0 0 240.3 90.8" style="enable-background:new 0 0 240.3 90.8;" xml:space="preserve">
<style type="text/css">
	.st0{fill:url(#SVGID_1_);}
	.st1{fill:#8910A7;}
	.st2{fill:#4349C5;}
	.st3{fill:url(#SVGID_00000054973422818698767180000008564435810221073323_);}
	.st4{fill:url(#SVGID_00000010280125308012173520000007831459528346178185_);}
	.st5{fill:url(#SVGID_00000054962877884431078750000010708351050138912896_);}
	.st6{fill:#9BB4C6;}
	.st7{fill:#FFFFFF;}
</style>
<g>
	<linearGradient id="SVGID_1_" gradientUnits="userSpaceOnUse" x1="32.7267" y1="26.6125" x2="85.7602" y2="26.6125">
		<stop  offset="0" style="stop-color:#4349C5"/>
		<stop  offset="2.194738e-02" style="stop-color:#4547C4"/>
		<stop  offset="0.4434" style="stop-color:#6A29B4"/>
		<stop  offset="0.7843" style="stop-color:#8117AB"/>
		<stop  offset="1" style="stop-color:#8910A7"/>
	</linearGradient>
	<path class="st0" d="M55.9,26.9c-0.5,9.2-10.5,16.1-23.1,25c-1.4,1,17.7-12.3,18-25.2c0.2-7.4,9.9-11.1,34.9-25.4
		C87.3,0.5,56.5,17,55.9,26.9z"/>
</g>
<path class="st1" d="M59.5,9.9c-0.1,0-0.2,0-0.2,0c0.3,0.1,0.6,0.3,0.6,0.7s-0.3,0.7-0.7,0.7s-0.6-0.3-0.7-0.6c0,0.1,0,0.2,0,0.2
	c0,0.6,0.5,1.1,1.1,1.1s1.1-0.5,1.1-1.1S60.1,9.9,59.5,9.9z"/>
<path class="st2" d="M8.7,48.6c0.7,0.3,5.9,3,10,2.3c4.8-0.8,7.6-3.3,7.6-3.3c0.7-0.6,1.7-1.7,3.4-1.7c0.3,0,1.6-0.1,2.2,0.7
	c0.6,0.8,0.4,1.9,0.3,2.2c-0.7,3-5.1,4.2-5.9,4.4c-1.1,0.3-4.8,1.2-10.1-0.6c-2.3-0.8-4.1-1.9-5.8-3"/>
<linearGradient id="SVGID_00000165940481537112530570000002242564338601113496_" gradientUnits="userSpaceOnUse" x1="12.2076" y1="67.8869" x2="35.0872" y2="67.8869">
	<stop  offset="0" style="stop-color:#4349C5"/>
	<stop  offset="2.194738e-02" style="stop-color:#4547C4"/>
	<stop  offset="0.4434" style="stop-color:#6A29B4"/>
	<stop  offset="0.7843" style="stop-color:#8117AB"/>
	<stop  offset="1" style="stop-color:#8910A7"/>
</linearGradient>
<path style="fill:url(#SVGID_00000165940481537112530570000002242564338601113496_);" d="M24,57.5c-8.2,6.6-11.4,33.3-11.7,33.3
	c-0.5,0,0.8-25.6,9.6-37.5c7.1-9.6,11.8-9.2,12.9-7.1c0.7,1.3-0.1,2.1-0.1,2.1C32.9,51,31.1,51.7,24,57.5z"/>
<path class="st2" d="M0,9.3c0.4,1.2,3.4,11,9.8,15.4c7.6,5.2,15.2,6,15.2,6c1.8,0.2,4.8,0.3,7.1,2.4c0.4,0.4,2.2,1.9,1.9,3.7
	c-0.3,1.7-2.3,2.6-3,2.9c-5.5,2.5-13.3-1.8-14.5-2.5c-1.9-1.1-8.3-4.8-12.6-13.6C2,19.8,1.3,16.1,0.8,12.8"/>
<linearGradient id="SVGID_00000142147544388682518290000012686580340193203114_" gradientUnits="userSpaceOnUse" x1="4.4995" y1="19.8867" x2="34.2841" y2="19.8867">
	<stop  offset="0" style="stop-color:#4349C5"/>
	<stop  offset="2.194738e-02" style="stop-color:#4547C4"/>
	<stop  offset="0.4434" style="stop-color:#6A29B4"/>
	<stop  offset="0.7843" style="stop-color:#8117AB"/>
	<stop  offset="1" style="stop-color:#8910A7"/>
</linearGradient>
<path style="fill:url(#SVGID_00000142147544388682518290000012686580340193203114_);" d="M4.8,0C5,1.3,5.7,12.3,11.5,18.6
	c6.8,7.4,14.6,10,14.6,10c1.8,0.6,5,1.5,6.9,4.2c0.3,0.5,1.8,2.6,1.1,4.4c-0.7,1.7-3,2.2-3.9,2.4c-6.4,1.3-13.6-5.1-14.7-6.1
	c-1.8-1.6-7.6-7.1-10.1-17.4c-1.1-4.5-1-8.5-0.7-12.2"/>
<linearGradient id="SVGID_00000152256375058816390630000015125027544121175953_" gradientUnits="userSpaceOnUse" x1="28.2971" y1="23.9195" x2="66.7159" y2="23.9195">
	<stop  offset="0" style="stop-color:#4349C5"/>
	<stop  offset="2.194738e-02" style="stop-color:#4547C4"/>
	<stop  offset="0.4434" style="stop-color:#6A29B4"/>
	<stop  offset="0.7843" style="stop-color:#8117AB"/>
	<stop  offset="1" style="stop-color:#8910A7"/>
</linearGradient>
<path style="fill:url(#SVGID_00000152256375058816390630000015125027544121175953_);" d="M64.1,6.6c-8.6-5-14.7-4.1-14.8-4.1
	c-0.5,0-6.9,0.7-9,7.9c-1.4,4.9-0.6,6.9-1.9,15.8c-1.3,8.8-4.8,14-5.5,15c-2.2,3.1-4.7,4.2-4.6,4.2c0.1,0.1,6.1-3.3,10.1-9.7
	c2.1-3.4,4.5-11.1,5.2-17.5c0.3-3,0.8-4.9,1.4-6.2c1.5-3.4,3.4-4.3,3.7-4.5c2.1-1.4,7.7-1.2,9.6-1c3.9,0.3,7.2,1.7,7.7,1.8
	C68.1,9.1,65,7.2,64.1,6.6z"/>
<path class="st2" d="M40.3,42.8c0.1,0.1,6-5.6,7.7-11.4c1.3-4.6,0-5.8,1.5-8.8c2.8-5.8,11.6-8.6,11.6-8.6s-7,1.4-10.6,4.3
	c-3.5,2.8-3.7,5.6-3.9,6.9c-0.3,2.5,0.3,2.7,0.2,5.2C46.4,36.4,40.2,42.7,40.3,42.8z"/>
<image style="display:none;overflow:visible;enable-background:new    ;" width="1921" height="1081" xlink:href="D462A0D.jpg"  transform="matrix(0.9994 0 0 0.9994 -840.0981 -482.5916)">
</image>
<g>
	<path class="st6" d="M72.9,27.8v24.1c0,0.9,0.3,1.6,0.8,2.1c0.6,0.5,1.4,0.7,2.4,0.7h2.3l0.5,2.8c-0.3,0.1-0.7,0.2-1.2,0.3
		s-1.1,0.1-1.6,0.2c-0.6,0-1,0.1-1.4,0.1c-1.7,0-3.1-0.5-4.2-1.4c-1-0.9-1.6-2.2-1.6-3.9v-25H72.9z"/>
	<path class="st6" d="M86.3,28c0.8,0,1.3,0.4,1.3,1.1v2.4c0,0.7-0.4,1.1-1.3,1.1h-1.9c-0.8,0-1.3-0.4-1.3-1.1v-2.4
		c0-0.7,0.4-1.1,1.3-1.1C84.4,28,86.3,28,86.3,28z M87.4,36.8v20.7h-4.1V36.8H87.4z"/>
	<path class="st6" d="M108.5,36.8v2.9H92.6V37l4.6-0.2H108.5z M101,30.7v21.2c0,1,0.2,1.7,0.7,2.1s1.3,0.6,2.5,0.6h3.6l0.5,2.8
		c-0.5,0.1-1.1,0.2-1.8,0.3c-0.7,0.1-1.3,0.1-2,0.2c-0.6,0-1.2,0.1-1.5,0.1c-2,0-3.5-0.5-4.5-1.4c-1-1-1.5-2.4-1.5-4.2V30.7H101z"/>
	<path class="st6" d="M123.2,36.3c3.5,0,6.1,0.6,7.7,1.7c1.6,1.1,2.4,2.8,2.4,5.1c0,1.8-0.4,3.3-1.3,4.3c-0.9,1-2.3,1.6-4.3,1.6H114
		v-2.8h12.7c1.1,0,1.8-0.3,2.1-1c0.3-0.6,0.5-1.3,0.5-2.1c0-1.3-0.5-2.3-1.4-2.9c-0.9-0.6-2.4-0.9-4.4-0.9c-1.7,0-3.1,0.2-4,0.7
		c-1,0.4-1.7,1.2-2.1,2.3s-0.6,2.6-0.6,4.6c0,2.2,0.2,3.9,0.7,5.1c0.5,1.2,1.3,2,2.4,2.4s2.5,0.6,4.3,0.6c1.3,0,2.6,0,4.1-0.1
		s2.8-0.2,4-0.4l0.4,2.4c-0.7,0.3-1.7,0.5-2.7,0.6c-1.1,0.2-2.2,0.3-3.3,0.4c-1.1,0.1-2.2,0.1-3.1,0.1c-2.7,0-4.9-0.4-6.5-1.1
		c-1.6-0.7-2.8-1.9-3.6-3.5c-0.8-1.6-1.1-3.7-1.1-6.4s0.4-4.9,1.1-6.4c0.8-1.6,1.9-2.7,3.5-3.4C118.6,36.7,120.7,36.3,123.2,36.3z"
		/>
	<path class="st7" d="M151.7,27.7c1.4,0,2.6,0,3.6,0.1s1.9,0.1,2.8,0.3c0.9,0.1,1.7,0.3,2.6,0.5l-0.4,2.9c-1-0.1-1.9-0.2-2.7-0.2
		c-0.8-0.1-1.7-0.1-2.6-0.1c-0.9,0-2,0-3.3,0c-2.2,0-3.9,0.4-5.1,1.1c-1.3,0.7-2.1,2-2.7,3.7c-0.5,1.7-0.8,4.1-0.8,7.1
		s0.3,5.3,0.8,7.1c0.5,1.7,1.4,3,2.7,3.7s3,1.1,5.1,1.1s3.8,0,5.2-0.1s2.8-0.2,4.1-0.4l0.4,2.8c-1.4,0.3-2.8,0.6-4.3,0.7
		c-1.5,0.2-3.3,0.2-5.5,0.2c-3.2,0-5.7-0.5-7.7-1.5c-1.9-1-3.3-2.6-4.2-4.8s-1.3-5.2-1.3-8.9s0.4-6.7,1.3-8.9
		c0.9-2.2,2.2-3.8,4.2-4.8C146,28.2,148.5,27.7,151.7,27.7z"/>
	<path class="st7" d="M184.2,44.8v2.7h-11.3c-1.1,0-1.9,0.3-2.4,0.8s-0.7,1.2-0.7,2.1v1.3c0,1.1,0.3,1.9,0.9,2.4
		c0.6,0.5,1.5,0.7,2.8,0.7c0.9,0,1.9-0.1,3.1-0.4c1.1-0.3,2.3-0.8,3.5-1.4c1.2-0.6,2.2-1.4,3.2-2.4v2.7c-0.4,0.4-0.9,0.9-1.5,1.4
		c-0.7,0.5-1.4,1-2.4,1.5c-0.9,0.5-1.9,0.9-3,1.2s-2.3,0.5-3.6,0.5c-1.4,0-2.6-0.2-3.7-0.7c-1.1-0.4-1.9-1.1-2.5-2s-0.9-1.9-0.9-3.2
		v-2.3c0-1.6,0.6-2.9,1.7-3.8c1.1-0.9,2.7-1.3,4.8-1.3h12V44.8z M178.1,36.3c1.7,0,3.2,0.2,4.4,0.6c1.2,0.4,2.1,1.1,2.7,2.1
		c0.6,1,0.9,2.3,0.9,4v14.6h-3.2l-0.6-4.5l-0.3-0.5V43c0-1.3-0.3-2.2-1-2.7c-0.7-0.6-1.9-0.8-3.8-0.8c-1.2,0-2.8,0.1-4.6,0.2
		c-1.9,0.1-3.7,0.2-5.5,0.4l-0.4-2.7c1.1-0.2,2.3-0.3,3.6-0.5c1.3-0.1,2.6-0.3,4-0.3C175.7,36.4,176.9,36.3,178.1,36.3z"/>
	<path class="st7" d="M196.7,36.8l0.5,4l0.4,0.6v16.1h-4.1V36.8H196.7z M208.2,36.3l-0.5,3.4h-1.4c-1.4,0-2.8,0.2-4.2,0.7
		s-3.1,1.2-5.1,2.1l-0.3-2.3c1.7-1.2,3.5-2.2,5.2-2.9c1.8-0.7,3.5-1.1,5.1-1.1L208.2,36.3L208.2,36.3z"/>
	<path class="st7" d="M220.2,36.3c1.5,0,3.1,0.2,4.6,0.5c1.5,0.4,3,0.9,4.3,1.6l-0.2,2.3c-1.5-0.4-2.9-0.7-4-0.9
		c-1.2-0.2-2.4-0.3-3.7-0.3c-1.4,0-2.4,0.2-3.3,0.6c-0.8,0.4-1.4,1.2-1.8,2.3c-0.4,1.1-0.6,2.7-0.6,4.7s0.2,3.6,0.6,4.8
		c0.4,1.1,1,1.9,1.8,2.4s1.8,0.7,3.1,0.7c0.9,0,1.8-0.1,2.5-0.3c0.8-0.2,1.6-0.6,2.4-1c0.9-0.5,1.9-1.1,3-1.8l0.4,2.6
		c-1.3,1.1-2.8,1.9-4.4,2.7c-1.6,0.7-3.4,1.1-5.3,1.1c-3,0-5.1-0.9-6.4-2.8c-1.3-1.8-1.9-4.6-1.9-8.2c0-2.7,0.3-4.8,1-6.4
		c0.6-1.6,1.6-2.7,2.9-3.4C216.6,36.7,218.2,36.3,220.2,36.3z M232.5,27.8v29.8h-3.2l-0.5-3.6l-0.4-0.3V39.4l0.3-0.6
		c-0.1-0.8-0.2-1.6-0.2-2.3s0-1.5,0-2.3v-6.4C228.5,27.8,232.5,27.8,232.5,27.8z"/>
</g>
</svg>
