<?xml version="1.0" encoding="utf-8"?>
<!-- Generator: Adobe Illustrator 26.5.0, SVG Export Plug-In . SVG Version: 6.00 Build 0)  -->
<svg version="1.1" id="Слой_1" xmlns="http://www.w3.org/2000/svg" xmlns:xlink="http://www.w3.org/1999/xlink" x="0px" y="0px"
	 viewBox="0 0 40 40" style="enable-background:new 0 0 40 40;" xml:space="preserve">
<style type="text/css">
	.st0{fill:#AD24CE;}
	.st1{fill:#4349C5;}
	.st2{fill:#AC27CC;}
</style>
<g transform="translate(72.92999267578125,87.57625198364258)">
	<g transform="matrix(1,0,0,1,0,4.640445709228516)">
		<g>
			<g>
				<g>
					<path class="st0" d="M-54.3-59.2l4.6,6.7h-9.2l-4.6-6.7H-54.3z"/>
					<path class="st1" d="M-63-71.9l13.7-20h-9.2l-13.7,20H-63z"/>
					<path class="st0" d="M-56.3-62.3h-9.2l-6.6-9.7h9.2C-63-71.9-56.3-62.3-56.3-62.3z"/>
					<path class="st1" d="M-45.3-72.5l-13.6,19.9h9.2l13.6-19.9C-36.1-72.5-45.3-72.5-45.3-72.5z M-56.3-62.3l13.6-19.9l-9.2,0
						l-13.6,19.9C-65.5-62.3-56.3-62.3-56.3-62.3z"/>
					<path class="st2" d="M-36.1-72.5h-9.2l-6.6-9.7h9.2C-42.7-82.2-36.1-72.5-36.1-72.5z M-53.9-85.2l-4.6-6.7 M-58.5-91.9h9.2
						l4.6,6.7h-9.2"/>
				</g>
			</g>
		</g>
	</g>
</g>
</svg>
