<svg width="20" height="20" viewBox="0 0 20 20" fill="none" xmlns="http://www.w3.org/2000/svg">
	<circle cx="10" cy="10" r="9" stroke="#FF4123" stroke-width="2" />
	<path d="M10.6496 12.032H9.36158L9.17958 5.284H10.8316L10.6496 12.032ZM8.98358 14.118C8.98358 13.8287 9.08158 13.5907 9.27758 13.404C9.47358 13.208 9.71158 13.11 9.99158 13.11C10.2716 13.11 10.5096 13.208 10.7056 13.404C10.9109 13.5907 11.0136 13.8287 11.0136 14.118C11.0136 14.4073 10.9109 14.65 10.7056 14.846C10.5096 15.042 10.2716 15.14 9.99158 15.14C9.71158 15.14 9.47358 15.042 9.27758 14.846C9.08158 14.65 8.98358 14.4073 8.98358 14.118Z" fill="#FF4123" />
</svg>
