<?xml version="1.0" encoding="utf-8"?>
<!-- Generator: Adobe Illustrator 26.5.0, SVG Export Plug-In . SVG Version: 6.00 Build 0)  -->
<svg version="1.1" id="Слой_1" xmlns="http://www.w3.org/2000/svg" xmlns:xlink="http://www.w3.org/1999/xlink" x="0px" y="0px"
	 viewBox="0 0 200 200" style="enable-background:new 0 0 200 200;" xml:space="preserve">
<style type="text/css">
	.st0{fill:#3579F4;stroke:#3579F4;stroke-width:7.999999e-03;stroke-miterlimit:200;}
</style>
<g id="SVGRepo_iconCarrier_00000021115895041753233770000013320361042728685988_">
	<path class="st0" d="M142.9,101.9c0.4-1,0.4-2.4,0-3.4l-25.1-54.6l-25.8,56.4l25.8,56.4L142.9,101.9z M65.6,164.4h44.6l0,0
		l-27.2-59.5H0l27.2,59.5H65.6 M64.8,36.1H27.2L0,95.6l0,0h83l27.2-59.5L64.8,36.1 M110.7,26.4h53.4c2.1,0,4,1.2,4.9,2.8l29.8,65.3
		c1.5,3.3,1.5,6.9,0,10.1L169,170c-0.7,1.8-2.7,2.8-4.9,2.8H73.4c-4.3,0-8.1-2.2-9.7-5.8l-30.1-65.9c-0.4-1-0.4-2.4,0-3.4l30.1-65.9
		c1.6-3.4,5.4-5.8,9.7-5.8h37.3"/>
</g>
</svg>
