<?xml version="1.0" encoding="utf-8"?>
<!-- Generator: Adobe Illustrator 26.5.0, SVG Export Plug-In . SVG Version: 6.00 Build 0)  -->
<svg version="1.1" id="LOCATION" xmlns="http://www.w3.org/2000/svg" xmlns:xlink="http://www.w3.org/1999/xlink" x="0px" y="0px"
	 viewBox="0 0 800 800" style="enable-background:new 0 0 800 800;" xml:space="preserve">
<style type="text/css">
	.st0{fill:#3579F4;stroke:#3579F4;stroke-width:5;stroke-miterlimit:10;}
</style>
<g id="SVGRepo_bgCarrier">
</g>
<g id="SVGRepo_iconCarrier">
	<g>
		<g>
			<path class="st0" d="M400,691.7l196.2-196.2c3.6-3.5,11.6-11.7,12-12.1l0.2-0.2c49.3-52.9,76.5-121.8,76.5-194.2
				C684.8,132,557,4.2,400,4.2C243,4.2,115.2,132,115.2,289c0,72.3,27.2,141.3,76.5,194.2L400,691.7z M400,31.6
				c141.9,0,257.4,115.5,257.4,257.4c0,65.3-24.5,127.6-69,175.4c-2.3,2.4-8.6,8.8-11.2,11.3L400,652.9L211.5,464.3
				c-44.5-47.8-68.9-110-68.9-175.3C142.6,147.1,258.1,31.6,400,31.6z"/>
		</g>
		<g>
			<path class="st0" d="M571.9,604.9c-10.7-4.4-22.2-8.2-34.3-11.7l-22.4,22.4c66.1,15.8,106.9,43.9,106.9,70
				c0,39.1-91.2,82.7-222,82.7c-130.9,0-222-43.6-222-82.7c0-26.1,40.8-54.3,106.9-70l-22.4-22.4c-12.1,3.4-23.6,7.3-34.3,11.7
				c-50,20.4-77.6,49.1-77.6,80.8c0,31.7,27.5,60.4,77.6,80.8c46.1,18.9,107.2,29.2,171.9,29.2c64.7,0,125.7-10.4,171.9-29.2
				c50-20.4,77.6-49.1,77.6-80.8C649.4,654.1,621.9,625.4,571.9,604.9z"/>
		</g>
		<g>
			<path class="st0" d="M400.8,420.1c-76.1,0-138-61.9-138-138s61.9-138,138-138s138,61.9,138,138S476.9,420.1,400.8,420.1z
				 M400.8,171.6c-61,0-110.6,49.6-110.6,110.6s49.6,110.6,110.6,110.6c61,0,110.6-49.6,110.6-110.6S461.8,171.6,400.8,171.6z"/>
		</g>
	</g>
</g>
</svg>
