<svg xmlns="http://www.w3.org/2000/svg" xmlns:xlink="http://www.w3.org/1999/xlink" id="&#x421;&#x43B;&#x43E;&#x439;_1" x="0px" y="0px" viewBox="0 0 600 200" style="enable-background:new 0 0 600 200;" xml:space="preserve"><style type="text/css">	.st0{fill:#272C3C;}	.st1{fill:#3579F4;}	.st2{display:none;}	.st3{display:inline;fill:#3579F4;stroke:#3579F4;stroke-width:7.999999e-03;stroke-miterlimit:200;}	.st4{fill:#3579F4;stroke:#3579F4;stroke-width:7.999999e-03;stroke-miterlimit:200;}</style><g>	<path class="st0" d="M27.1,73.4c3.2,0.1,6.6,0.2,10.1,0.5c3.5,0.3,7,0.8,10.4,1.5L46.8,82c-2.7-0.1-5.8-0.1-9.3-0.2  c-3.5-0.1-6.9-0.1-10.2-0.1c-2,0-3.7,0.1-5.1,0.2c-1.4,0.1-2.6,0.4-3.4,0.8c-0.9,0.4-1.5,1.1-1.9,1.9c-0.4,0.9-0.6,2-0.6,3.6  c0,2.3,0.6,4,1.7,5c1.2,1,3,1.8,5.7,2.3l12.8,3.1c5.1,1.3,8.7,3.2,10.6,5.7c1.9,2.5,2.9,5.8,2.9,9.9c0,3.1-0.4,5.6-1.3,7.6  c-0.9,2-2.2,3.5-4,4.6c-1.8,1.1-4.2,1.9-7.1,2.3c-2.9,0.5-6.5,0.7-10.6,0.7c-2.1,0-5.1-0.1-8.8-0.3c-3.7-0.2-8-0.7-12.7-1.6l0.8-7  c3.7,0.1,6.8,0.2,9.3,0.3c2.5,0.1,4.7,0.1,6.5,0.1c1.8,0,3.5,0,5.1,0c2.9,0,5.1-0.2,6.8-0.5c1.6-0.3,2.8-1,3.4-2c0.7-1,1-2.4,1-4.3  c0-1.6-0.2-2.9-0.7-3.8c-0.5-0.9-1.2-1.6-2.3-2.2c-1.1-0.5-2.4-1-4.1-1.3l-13.2-3.4c-4.9-1.3-8.3-3.1-10.3-5.6c-2-2.5-3-5.7-3-9.9  c0-3.1,0.4-5.6,1.3-7.5c0.9-2,2.2-3.4,4-4.5c1.8-1,4.1-1.7,7-2.1C19.7,73.6,23.1,73.4,27.1,73.4z"></path>	<path class="st0" d="M72.9,74.4v16c0,1.7-0.1,3.3-0.4,4.9c-0.3,1.6-0.7,3.2-1.3,4.8c0.4,1.5,0.8,3.1,1.2,4.7  c0.3,1.6,0.5,3.1,0.5,4.6v19H61.2v-54H72.9z M81.2,96.7v7.1h-12v-7.1H81.2z M109.5,74.4l-17.7,22c-0.6,0.8-1.3,1.6-2,2.2  c-0.7,0.6-1.4,1.2-2.3,1.7v0.2c0.9,0.5,1.8,1.1,2.6,1.9c0.9,0.7,1.6,1.5,2.2,2.3l18.4,23.7H97.6l-21.3-28.2l20.5-25.7H109.5z"></path>	<path class="st0" d="M130.5,74.4v41.5c0,1.5,0.5,2.6,1.5,3.4c1,0.8,2.4,1.1,4.2,1.1H159l0.6,7.4c-4.3,0.3-8.7,0.5-13.3,0.6  s-9.2,0.1-13.7,0.1c-4.8,0-8.2-1-10.5-3.1c-2.2-2-3.3-4.6-3.3-7.7V74.4H130.5z"></path>	<path class="st0" d="M196.9,74.4c1,0,1.9,0.2,2.6,0.7c0.8,0.5,1.3,1.1,1.6,1.9l19.6,51.4h-12l-14.8-41.6c-0.3-0.8-0.5-1.7-0.8-2.5  c-0.3-0.8-0.5-1.6-0.7-2.4h-2.6c-0.2,0.8-0.4,1.6-0.7,2.4c-0.3,0.8-0.5,1.7-0.8,2.5l-14.7,41.6h-12L181.2,77  c0.2-0.8,0.8-1.4,1.5-1.9c0.8-0.5,1.7-0.7,2.7-0.7H196.9z M207.8,105.3v7.7h-33.3v-7.7H207.8z"></path>	<path class="st0" d="M252.8,73.7c4.9,0,9,0.5,12.4,1.4c3.4,0.9,6.2,2.4,8.3,4.5c2.1,2.1,3.6,5,4.6,8.5c0.9,3.6,1.4,8,1.4,13.3  c0,5.3-0.5,9.7-1.4,13.3s-2.5,6.4-4.6,8.5c-2.1,2.1-4.8,3.6-8.3,4.5c-3.4,0.9-7.6,1.4-12.4,1.4c-4.7,0-9-0.1-13-0.2  c-4-0.1-7.8-0.3-11.4-0.5l4.9-7.5c2.5,0.1,5.4,0.2,8.6,0.3c3.3,0.1,6.9,0.1,10.9,0.1c3.6,0,6.5-0.6,8.6-1.8  c2.1-1.2,3.6-3.2,4.5-6.1c0.9-2.9,1.3-6.9,1.3-12c0-5.1-0.4-9.1-1.3-12c-0.9-2.9-2.4-4.9-4.5-6.1c-2.1-1.2-5-1.8-8.6-1.8  c-3.9,0-7.3,0-10.4,0.1c-3,0.1-6,0.1-8.9,0.1l-5.2-7.2c3.6-0.2,7.3-0.4,11.3-0.5C243.7,73.8,248.1,73.7,252.8,73.7z M240.2,74.4v54  h-11.7v-54H240.2z"></path>	<path class="st1" d="M314.8,73.8c5.5,0,9.9,0.4,13.2,1.2c3.3,0.8,5.6,2.2,7.1,4.3s2.2,4.9,2.2,8.6c0,3.9-0.9,6.8-2.6,8.8  c-1.8,2-4.6,3.2-8.6,3.5v0.3c4.9,0.4,8.4,1.8,10.4,4.2c2,2.5,3,5.8,3,10.2c0,3.7-0.7,6.6-2.2,8.6c-1.5,2-3.8,3.5-6.9,4.3  c-3.2,0.8-7.3,1.2-12.3,1.2c-3.9,0-7.4,0-10.3,0c-2.9,0-5.6-0.1-8.1-0.2c-2.4-0.1-5-0.2-7.6-0.4l1.3-7.1c1.5,0.1,4.3,0.1,8.4,0.2  c4.1,0.1,8.9,0.1,14.4,0.1c2.9,0,5.3-0.2,6.9-0.7c1.7-0.4,2.9-1.3,3.6-2.5s1.1-3,1.1-5.2c0-2.5-0.4-4.4-1.1-5.8  c-0.8-1.3-2-2.3-3.7-2.8c-1.7-0.5-4.1-0.8-7.3-0.8H293v-6.6h22.2c2.7,0,4.8-0.2,6.3-0.7c1.5-0.4,2.6-1.2,3.3-2.4  c0.7-1.1,1-2.8,1-4.9c0-2.1-0.4-3.8-1.1-4.9c-0.7-1.1-1.9-1.9-3.6-2.3c-1.7-0.4-4-0.6-7-0.6c-3.3,0-6.3,0-8.8,0c-2.6,0-4.9,0-6.9,0  c-2,0-3.8,0.1-5.4,0.2l-1.3-7.1c2.4-0.2,4.6-0.4,6.8-0.4s4.5-0.1,7.1-0.2C308.3,73.8,311.3,73.8,314.8,73.8z M303.2,74.4v54h-11.5  v-54H303.2z"></path>	<path class="st1" d="M375.7,73.4c5,0,9.2,0.5,12.7,1.4c3.4,0.9,6.2,2.4,8.3,4.6c2.1,2.1,3.6,5,4.6,8.6c0.9,3.6,1.4,8.1,1.4,13.5  c0,5.3-0.5,9.8-1.4,13.4c-0.9,3.6-2.5,6.5-4.6,8.6c-2.1,2.1-4.9,3.7-8.3,4.6c-3.4,0.9-7.7,1.4-12.7,1.4c-4.9,0-9-0.5-12.5-1.4  c-3.4-0.9-6.2-2.4-8.4-4.6c-2.1-2.1-3.7-5-4.6-8.6c-0.9-3.6-1.4-8.1-1.4-13.4c0-5.4,0.5-9.9,1.4-13.5c0.9-3.6,2.5-6.5,4.6-8.6  c2.1-2.1,4.9-3.7,8.4-4.6C366.6,73.9,370.8,73.4,375.7,73.4z M375.7,81.4c-3.7,0-6.6,0.6-8.7,1.8c-2.1,1.2-3.6,3.3-4.5,6.2  c-0.9,2.9-1.3,6.9-1.3,12c0,5.1,0.4,9.1,1.3,12c0.9,2.9,2.4,5,4.5,6.2c2.1,1.2,5,1.8,8.7,1.8c3.8,0,6.7-0.6,8.8-1.8  c2.1-1.2,3.6-3.3,4.5-6.2c0.9-2.9,1.3-6.9,1.3-12c0-5.1-0.4-9.1-1.3-12c-0.9-2.9-2.4-5-4.5-6.2C382.4,82,379.4,81.4,375.7,81.4z"></path>	<path class="st1" d="M420.6,74.4l15.7,26.1l-16.8,27.8h-12.3l17.6-27.8l-16.3-26.1H420.6z M441.4,97.3v6.5h-12.8v-6.5H441.4z   M462,74.4l-16.3,26.1l17.6,27.8H451l-16.8-27.8l15.7-26.1H462z"></path></g><g id="SVGRepo_iconCarrier" class="st2">	<path class="st3" d="M571.6,98.5l-62.3-72.3c-1.7-1.9-5.7-3.2-10.1-3.2H309.8c-8.9,0-17,2.5-20.3,6.4l-25.9,30c3.3,0,6.5,0,9.8,0  c4.6,0,9.1,0,13.7,0l22.6-26.2h173.2l-22.6,26.2c1.3,0,2.6,0,3.9,0c1.4,0,10.3,0.2,19.4,0.4l15.5-18l52.2,60.5c1,1.2,1,2.6,0,3.8  l-52.2,60.5l-19.7-22.9c-6.7,0-13.4,0.1-20,0.1c-1.2,0-2.3,0-3.5,0l27.1,31.4H309.8l-27.1-31.4c-1.3,0-2.5,0-3.8,0  c-6.6,0-13.2,0-19.8-0.1l30.4,35.2c3.3,3.8,11.3,6.4,20.3,6.4h189.3c4.5,0,8.5-1.3,10.1-3.2l62.3-72.3  C574.7,106.2,574.7,102.1,571.6,98.5z"></path></g><g id="SVGRepo_iconCarrier_00000021115895041753233770000013320361042728685988_">	<path class="st4" d="M561.8,101.4c0.3-0.7,0.3-1.6,0-2.3L545,62.5l-17.3,37.8l17.3,37.8L561.8,101.4z M510,143.3h29.9h0l-18.2-39.9  H466l18.2,39.9H510 M509.4,57.3h-25.2L466,97.2h0h55.6l18.2-39.9H509.4 M540.2,50.8H576c1.4,0,2.7,0.8,3.3,1.9l20,43.8  c1,2.2,1,4.6,0,6.8l-20,43.8c-0.5,1.2-1.8,1.9-3.3,1.9h-60.8c-2.9,0-5.4-1.5-6.5-3.9l-20.2-44.2c-0.3-0.7-0.3-1.6,0-2.3l20.2-44.2  c1.1-2.3,3.6-3.9,6.5-3.9H540.2"></path></g></svg>