<?xml version="1.0" encoding="utf-8"?>
<!-- Generator: Adobe Illustrator 26.5.0, SVG Export Plug-In . SVG Version: 6.00 Build 0)  -->
<svg version="1.1" id="Слой_1" xmlns="http://www.w3.org/2000/svg" xmlns:xlink="http://www.w3.org/1999/xlink" x="0px" y="0px"
	 viewBox="0 0 800 800" style="enable-background:new 0 0 800 800;" xml:space="preserve">
<style type="text/css">
	.st0{fill:url(#SVGID_1_);}
</style>
<linearGradient id="SVGID_1_" gradientUnits="userSpaceOnUse" x1="16.0365" y1="404.7784" x2="784.0456" y2="404.7784" gradientTransform="matrix(1 0 0 -1 0 800)">
	<stop  offset="2.823728e-07" style="stop-color:#015C3B"/>
	<stop  offset="1" style="stop-color:#012D3B"/>
</linearGradient>
<path class="st0" d="M522.1,507.8l-20.8-20.9l0,0L522.1,507.8z M540,490l20.8,20.9l0,0L540,490z M635.2,477.5l-14.1,25.9
	L635.2,477.5z M710.4,518.4l-14.1,25.9L710.4,518.4z M731.6,646.6l20.8,20.9L731.6,646.6z M675.7,702.2l-20.8-20.9L675.7,702.2z
	 M623.5,728.6l2.7,29.4l0,0L623.5,728.6z M235.2,561.7l20.8-20.9L235.2,561.7z M45.7,208l-29.5,1.7l0,0L45.7,208z M300.6,265.2
	l20.8,20.9l0,0L300.6,265.2z M306.8,160.7l23.6-17.7L306.8,160.7z M257.1,94.3L233.5,112l0,0L257.1,94.3z M134.6,83.1l20.8,20.9l0,0
	L134.6,83.1z M72.8,144.6L52,123.7l0,0L72.8,144.6z M363.1,434.5l20.8-20.9L363.1,434.5z M542.9,528.8l17.9-17.8l-41.7-41.9
	l-17.9,17.8L542.9,528.8z M621.1,503.5l75.2,40.9l28.2-51.9l-75.2-40.9L621.1,503.5z M710.8,625.7l-55.9,55.6l41.7,41.9l55.9-55.6
	L710.8,625.7z M620.8,699.2c-57.1,5.3-204.8,0.6-364.8-158.5l-41.7,41.9C388.9,756.2,555,764.7,626.3,758L620.8,699.2z M256,540.7
	C103.5,389.2,78.3,261.6,75.1,206.3l-59,3.4c4,69.6,35.2,210.9,198.2,373L256,540.7z M310.2,297.4l11.3-11.2l-41.7-41.9l-11.3,11.2
	L310.2,297.4z M330.4,143l-49.7-66.3L233.5,112l49.7,66.3L330.4,143z M113.8,62.2L52,123.7l41.7,41.9l61.8-61.5L113.8,62.2z
	 M289.3,276.4c-20.8-20.9-20.9-20.9-20.9-20.9s0,0-0.1,0.1l-0.1,0.1c-0.1,0.1-0.2,0.2-0.2,0.3c-0.2,0.2-0.4,0.4-0.5,0.6
	c-0.4,0.4-0.8,0.9-1.2,1.4c-0.9,1.1-1.9,2.4-3,3.9c-2.1,3.1-4.5,7.3-6.4,12.5c-4,10.7-6.2,24.7-3.5,42.2
	c5.3,34.1,28.8,79.1,88.9,138.9l41.7-41.9c-56.3-55.9-69.7-90-72.1-106c-1.2-7.6,0-11.4,0.4-12.3c0.2-0.6,0.3-0.6,0.1-0.2
	c-0.1,0.2-0.3,0.5-0.7,0.9c-0.2,0.2-0.4,0.4-0.6,0.7c-0.1,0.1-0.2,0.3-0.4,0.4c-0.1,0.1-0.1,0.1-0.2,0.2l-0.1,0.1c0,0,0,0-0.1,0.1
	C310.2,297.3,310.2,297.4,289.3,276.4z M342.3,455.5c60.1,59.8,105.4,83.1,139.5,88.3c17.4,2.7,31.5,0.5,42.2-3.4
	c5.2-1.9,9.4-4.2,12.5-6.4c1.6-1.1,2.9-2.1,4-2.9c0.5-0.4,1-0.9,1.4-1.2c0.2-0.2,0.4-0.4,0.6-0.5c0.1-0.1,0.2-0.2,0.3-0.2l0.1-0.1
	c0,0,0.1,0,0.1-0.1c0,0,0.1-0.1-20.8-21c-20.8-20.9-20.8-21-20.8-21s0,0,0.1-0.1l0.1-0.1c0.1-0.1,0.1-0.1,0.2-0.2s0.3-0.2,0.4-0.4
	c0.2-0.2,0.5-0.4,0.7-0.6c0.4-0.3,0.7-0.5,0.9-0.6c0.4-0.2,0.3-0.1-0.3,0.1c-1,0.4-4.8,1.6-12.6,0.4c-16.3-2.5-50.6-15.9-106.8-71.8
	L342.3,455.5z M280.8,76.6c-40.1-53.6-119.1-62.1-167-14.4l41.7,41.9c20.9-20.8,58.1-18.7,78.1,8L280.8,76.6z M75.1,206.3
	c-0.8-13.6,5.5-27.9,18.5-40.8L52,123.7c-21.2,21-37.8,50.8-35.8,86L75.1,206.3z M654.9,681.3c-10.8,10.8-22.4,16.8-34.1,17.9
	l5.5,58.8c28.9-2.7,52.6-17.3,70.3-34.8L654.9,681.3z M321.5,286.1c38.8-38.6,41.7-99.5,9-143.2l-47.3,35.4
	c15.9,21.2,13.5,49.1-3.4,65.9L321.5,286.1z M696.3,544.4c32.2,17.5,37.2,58.7,14.5,81.3l41.7,41.9c52.8-52.5,36.5-140.1-27.9-175.1
	L696.3,544.4z M560.8,510.9c15.1-15,39.5-18.8,60.2-7.5l28.2-51.9c-42.7-23.2-95.6-16.8-130.1,17.5L560.8,510.9z"/>
</svg>
