<?xml version="1.0" encoding="utf-8"?>
<!-- Generator: Adobe Illustrator 26.5.0, SVG Export Plug-In . SVG Version: 6.00 Build 0)  -->
<svg version="1.1" id="Слой_1" xmlns="http://www.w3.org/2000/svg" xmlns:xlink="http://www.w3.org/1999/xlink" x="0px" y="0px"
	 viewBox="0 0 800 800" style="enable-background:new 0 0 800 800;" xml:space="preserve">
<style type="text/css">
	.st0{fill:#F1F3F4;}
	.st1{fill:url(#SVGID_1_);}
	.st2{fill:url(#SVGID_00000027583896662696164020000003365558809876554904_);}
</style>
<path class="st0" d="M720.4,95L60.3,342.6c-17.2,6.4-25.9,25.5-19.4,42.7c3.2,8.5,9.7,15.3,18,18.9l156.4,67l328.6-219.1
	c3.5-2.9,8.7-2.4,11.6,1.2c2.9,3.5,2.4,8.7-1.2,11.6l0,0L314.9,504.3v166l99.6-99.6L573,702.8c14.1,11.7,35,9.8,46.7-4.2
	c3.2-3.8,5.5-8.4,6.7-13.2l137.8-551.1c4.5-17.8-6.3-35.8-24.1-40.3C733.6,92.3,726.7,92.7,720.4,95z"/>
<linearGradient id="SVGID_1_" gradientUnits="userSpaceOnUse" x1="13.9152" y1="398.1914" x2="789.9865" y2="398.1914" gradientTransform="matrix(1 0 0 -1 0 800)">
	<stop  offset="1.491781e-07" style="stop-color:#015C3B"/>
	<stop  offset="1" style="stop-color:#012D3B"/>
</linearGradient>
<path class="st1" d="M594.1,735.4c-13.5,0-26.6-4.8-37-13.5L416,604.3l-83.6,83.6c-9.7,9.7-25.4,9.7-35,0
	c-4.6-4.6-7.2-10.9-7.2-17.5v-166c0-6.6,2.6-12.9,7.2-17.5L419.2,365L229,491.8c-7,4.6-15.8,5.5-23.5,2.2L49.1,427
	C19.7,414.4,6,380.3,18.6,350.9c6.2-14.5,18.1-25.9,32.9-31.4L711.7,71.9c30-11.2,63.4,4,74.6,34c4.1,11,4.8,23,2,34.4L650.5,691.4
	c-4.8,19.4-19.2,34.9-38.2,41C606.4,734.4,600.3,735.4,594.1,735.4z M414.4,546c5.8,0,11.4,2,15.9,5.7l158.5,132.1
	c2.2,1.9,5.3,2.5,8,1.6c2.8-0.9,4.9-3.1,5.6-6l137.8-551.2c1.1-4.5-1.6-9.1-6.2-10.2c-1.6-0.4-3.4-0.3-5,0.3l0,0L69,365.8
	c-4.4,1.6-6.6,6.5-4.9,10.9c0.8,2.2,2.5,3.9,4.6,4.8l144,61.7l317.4-211.6c15.1-10.3,35.6-6.4,45.9,8.6c9,13.2,7.3,31.1-4.2,42.3
	L339.6,514.6v95.9l57.3-57.3C401.6,548.6,407.9,546,414.4,546z M720.4,95.1L720.4,95.1z"/>
<linearGradient id="SVGID_00000080899018086575260520000013291757237796884881_" gradientUnits="userSpaceOnUse" x1="35.6993" y1="582.2415" x2="789.9865" y2="582.2415" gradientTransform="matrix(1 0 0 -1 0 800)">
	<stop  offset="1.491781e-07" style="stop-color:#015C3B"/>
	<stop  offset="1" style="stop-color:#012D3B"/>
</linearGradient>
<path style="fill:url(#SVGID_00000080899018086575260520000013291757237796884881_);" d="M60.3,367.3c-13.7-0.1-24.7-11.3-24.6-25
	c0.1-10.2,6.4-19.3,15.9-22.9L711.7,71.9c30-11.2,63.4,4,74.6,34c4.1,11,4.8,23,2,34.4c-3.3,13.3-16.8,21.3-30,18
	c-13.3-3.3-21.3-16.8-18-30c1.1-4.5-1.7-9.1-6.2-10.2c-1.6-0.4-3.3-0.3-4.9,0.3L69,365.8C66.2,366.8,63.3,367.3,60.3,367.3z"/>
</svg>
