<svg width="19" height="19" viewBox="0 0 19 19" fill="none" xmlns="http://www.w3.org/2000/svg">
    <path d="M3.4618 9.03666C6.66555 7.62729 10.8112 5.909 11.3836 5.67112C12.8847 5.0487 13.3453 5.16787 13.1157 6.54654C12.9507 7.53745 12.4749 10.8177 12.0954 12.8596C11.8704 14.0705 11.3653 14.214 10.5715 13.6901C10.1897 13.438 8.26238 12.1634 7.84393 11.8641C7.46213 11.5914 6.93551 11.2632 7.59597 10.617C7.83109 10.3869 9.37155 8.91566 10.5719 7.77075C10.7291 7.62041 10.5316 7.37337 10.3501 7.49391C8.73218 8.56687 6.48909 10.056 6.20355 10.2499C5.77226 10.5427 5.35793 10.677 4.61451 10.4635C4.05259 10.3021 3.50397 10.1096 3.29038 10.0363C2.46768 9.75395 2.66293 9.3882 3.4618 9.03666Z" fill="#3579F4"/>
    <defs>
        <linearGradient id="paint0_linear_127_50" x1="2.68492" y1="2.68492" x2="15.6484" y2="15.6484" gradientUnits="userSpaceOnUse">
            <stop stop-color="#33BEF0"/>
            <stop offset="1" stop-color="#0A85D9"/>
        </linearGradient>
    </defs>
</svg>
