<?xml version="1.0" encoding="utf-8"?>
<!-- Generator: Adobe Illustrator 26.5.0, SVG Export Plug-In . SVG Version: 6.00 Build 0)  -->
<svg version="1.1" id="Layer_1" xmlns="http://www.w3.org/2000/svg" xmlns:xlink="http://www.w3.org/1999/xlink" x="0px" y="0px"
	 viewBox="0 0 512 512" style="enable-background:new 0 0 512 512;" xml:space="preserve">
<style type="text/css">
	.st0{fill:#252F43;stroke:#252F43;stroke-width:5;stroke-miterlimit:10;}
</style>
<path class="st0" d="M278.1,340V63.6c-0.1-32.8-26.8-59.3-59.6-59.1c-32.6,0.1-59,26.5-59.1,59.1V340
	c-40.4,32.9-46.5,92.3-13.6,132.8c17.4,21.3,43.2,34,70.7,34.7c0.8,0,1.5,0,2.3,0c52.1,0,94.3-42.2,94.3-94.3
	C313,384.8,300.1,357.9,278.1,340z M277.7,473.6c-16.2,16-38.3,24.6-61,24c-44.7-1.1-81.7-38.3-82.4-83c-0.5-26.7,11.7-52.1,33-68.3
	c1.2-0.9,1.9-2.4,1.9-3.9V63.6c0.1-27.3,22.4-49.4,49.7-49.3c27.2,0.1,49.2,22.1,49.3,49.3v24.7h-19.3c-2.7,0-4.9,2.2-4.9,4.9
	c0,2.7,2.2,4.9,4.9,4.9h19.3v33h-19.3c-2.7,0-4.9,2.2-4.9,4.9s2.2,4.9,4.9,4.9h19.3v33h-19.3c-2.7,0-4.9,2.2-4.9,4.9
	s2.2,4.9,4.9,4.9h19.3v33h-19.3c-2.7,0-4.9,2.2-4.9,4.9c0,2.7,2.2,4.9,4.9,4.9h19.3v33h-19.3c-2.7,0-4.9,2.2-4.9,4.9
	s2.2,4.9,4.9,4.9h19.3v33h-19.3c-2.7,0-4.9,2.2-4.9,4.9s2.2,4.9,4.9,4.9h19.3v30c0,1.5,0.7,3,1.9,3.9c37,28.4,43.9,81.4,15.5,118.4
	C283.2,467.8,280.5,470.8,277.7,473.6L277.7,473.6z M234,376.7V59.2c0-2.7-2.2-4.9-4.9-4.9h-20.7c-2.7,0-4.9,2.2-4.9,4.9v317.5
	c-20.2,8.4-29.7,31.6-21.2,51.8s31.6,29.7,51.8,21.2c20.2-8.4,29.7-31.6,21.2-51.8C251.2,388.4,243.5,380.7,234,376.7z M218.7,443
	c-16.4,0-29.7-13.3-29.7-29.7c0-13,8.4-24.5,20.8-28.4c2.1-0.6,3.5-2.6,3.5-4.7v-316h10.9v316c0,2.2,1.4,4.1,3.5,4.7
	c15.7,4.9,24.4,21.6,19.5,37.3C243.1,434.5,231.7,443,218.7,443L218.7,443z M321.1,127.6c-1.9-1.9-1.9-5,0-7l29.3-29.3
	c1.9-1.9,5-1.9,7,0l28.6,28.6c2,1.9,2,5,0.1,7c-1.9,2-5,2-7,0.1c0,0-0.1-0.1-0.1-0.1l-20.5-20.5V184c0,2.7-2.2,4.9-4.9,4.9
	s-4.9-2.2-4.9-4.9v-76.9l-20.5,20.5C326.2,129.5,323,129.5,321.1,127.6L321.1,127.6z M386,302.3c1.9,1.9,1.9,5,0,7l-28.6,28.6
	c-1.9,1.9-5,1.9-7,0l-29.3-29.3c-1.9-2-1.8-5.1,0.1-7c1.9-1.8,4.9-1.8,6.9,0l20.5,20.5v-74.2c0-2.7,2.2-4.9,4.9-4.9s4.9,2.2,4.9,4.9
	v75l20.5-20.5C380.9,300.3,384.1,300.3,386,302.3L386,302.3z"/>
</svg>
