<?xml version="1.0" encoding="utf-8"?>
<!-- Generator: Adobe Illustrator 26.5.0, SVG Export Plug-In . SVG Version: 6.00 Build 0)  -->
<svg version="1.1" id="Capa_1" xmlns="http://www.w3.org/2000/svg" xmlns:xlink="http://www.w3.org/1999/xlink" x="0px" y="0px"
	 viewBox="0 0 511 511" style="enable-background:new 0 0 511 511;" xml:space="preserve">
<style type="text/css">
	.st0{fill:#252F43;stroke:#252F43;stroke-width:5;stroke-miterlimit:10;}
</style>
<path class="st0" d="M467.2,54.3c-17.5-24.3-34.7-43.6-35.4-44.4c-2.8-3.2-8-3.2-10.8,0c-0.7,0.8-17.9,20-35.4,44.4
	c-24.1,33.5-36.3,59.4-36.3,77c0,42.5,34.6,77.2,77.2,77.2s77.2-34.6,77.2-77.2C503.5,113.7,491.3,87.8,467.2,54.3z M426.3,193.8
	c-34.5,0-62.6-28.1-62.6-62.6c0-26.9,41.1-80.4,62.6-105.4c21.5,25,62.6,78.5,62.6,105.4C488.9,165.8,460.9,193.8,426.3,193.8z"/>
<path class="st0" d="M161.8,131.2c0-17.6-12.2-43.5-36.3-77C108,29.9,90.8,10.7,90.1,9.9c-2.8-3.2-8-3.2-10.8,0
	c-0.7,0.8-17.9,20-35.4,44.4c-24.1,33.5-36.3,59.4-36.3,77c0,42.5,34.6,77.2,77.2,77.2S161.8,173.8,161.8,131.2z M84.7,193.8
	c-34.5,0-62.6-28.1-62.6-62.6c0-26.9,41.1-80.4,62.6-105.4c21.5,25,62.6,78.5,62.6,105.4C147.3,165.8,119.2,193.8,84.7,193.8z"/>
<path class="st0" d="M340.9,230.2c-3.4,2.2-4.4,6.7-2.2,10C370.9,291,388,331.2,388,356.4c0,73.1-59.4,132.5-132.5,132.5
	S123,429.5,123,356.4c0-65.1,106.7-198.2,132.5-229.4c11.2,13.5,37.7,46.3,63.9,84.2c2.3,3.3,6.8,4.1,10.1,1.8
	c3.3-2.3,4.1-6.8,1.8-10.1c-34.8-50.3-70-91.6-70.3-92c-2.9-3.3-8.2-3.3-11.1,0c-5.8,6.8-141.5,166.5-141.5,245.5
	c0,81.1,66,147.1,147.1,147.1s147.1-66,147.1-147.1c0-28.4-17.4-70.1-51.6-124C348.8,229.1,344.3,228.1,340.9,230.2L340.9,230.2z"/>
<path class="st0" d="M315,289.2c-2.8-2.8-7.5-2.8-10.3,0L196,397.9c-2.8,2.8-2.8,7.5,0,10.3c1.4,1.4,3.3,2.1,5.1,2.1
	c1.9,0,3.7-0.7,5.1-2.1L315,299.5C317.8,296.6,317.8,292,315,289.2z"/>
<path class="st0" d="M216.7,340.4c12.6,0,22.8-10.2,22.8-22.8s-10.2-22.8-22.8-22.8s-22.8,10.2-22.8,22.8S204.1,340.4,216.7,340.4z
	 M216.7,309.4c4.5,0,8.3,3.7,8.3,8.3c0,4.5-3.7,8.3-8.3,8.3c-4.5,0-8.3-3.7-8.3-8.3C208.4,313.1,212.1,309.4,216.7,309.4z"/>
<path class="st0" d="M294.3,356.9c-12.6,0-22.8,10.2-22.8,22.8c0,12.6,10.2,22.8,22.8,22.8s22.8-10.2,22.8-22.8
	C317.1,367.1,306.9,356.9,294.3,356.9z M294.3,388c-4.5,0-8.3-3.7-8.3-8.3c0-4.5,3.7-8.3,8.3-8.3s8.3,3.7,8.3,8.3
	C302.6,384.3,298.9,388,294.3,388z"/>
</svg>
