<svg width="22" height="22" viewBox="0 0 22 22" fill="none" xmlns="http://www.w3.org/2000/svg">
    <path d="M2 20L3.27481 15.3793C2.49377 14.0209 2.0808 12.4926 2.0808 10.9196C2.0808 6.00397 6.10274 2 11.0404 2C13.4374 2 15.6908 2.92949 17.3786 4.61867C19.0663 6.30785 20 8.5422 20 10.9285C20 15.8441 15.9781 19.8481 11.0404 19.8481C9.54115 19.8481 8.06883 19.4727 6.7581 18.7666L2 20Z" fill="#0DC143"/>
    <path fill-rule="evenodd" clip-rule="evenodd" d="M8.53984 6.46468C8.35783 6.02681 8.15928 6.01787 7.98554 6.00894C7.8449 6 7.67944 6 7.51398 6C7.34852 6 7.08378 6.06255 6.8604 6.33064C6.63703 6.59873 6 7.24214 6 8.54683C6 9.85153 6.87695 11.1115 7.00105 11.2903C7.12514 11.469 8.7053 14.2303 11.2038 15.2937C13.2803 16.1784 13.7023 15.9997 14.1573 15.955C14.604 15.9103 15.6133 15.3116 15.8202 14.695C16.027 14.0784 16.027 13.5422 15.9608 13.435C15.9029 13.3277 15.7374 13.2562 15.4892 13.1222C15.2411 12.9882 14.0332 12.3447 13.8098 12.2554C13.5864 12.166 13.421 12.1213 13.2555 12.3894C13.09 12.6575 12.6185 13.2562 12.4778 13.426C12.3372 13.6048 12.1883 13.6226 11.9484 13.4886C11.7002 13.3545 10.9142 13.0775 9.97109 12.175C9.24306 11.469 8.74667 10.6022 8.60603 10.3341C8.46538 10.066 8.58948 9.92302 8.71358 9.78897C8.82113 9.6728 8.96177 9.4762 9.08587 9.32429C9.20996 9.17237 9.25133 9.0562 9.33406 8.87747C9.41679 8.69875 9.37543 8.54683 9.31751 8.41279C9.23478 8.29662 8.75494 6.99192 8.53984 6.46468Z" fill="white"/>
</svg>
