<svg width="150" height="150" fill="none" xmlns="http://www.w3.org/2000/svg"><path d="M134.867 75.365c.013-.15.036-.292.069-.428.022-.137.062-.29.119-.456l1.044.186c-.058.177-.094.35-.108.52a1.38 1.38 0 0 0 .46 1.196c.357.33.923.603 1.697.818.784.217 1.796.4 3.036.548l4.769.566-.644 7.573-11.159-.95.099-1.163 10.458.889-.345.276.507-5.963.311.316-4.053-.49a28.631 28.631 0 0 1-2.882-.485c-.797-.186-1.458-.413-1.981-.683-.512-.268-.887-.589-1.122-.962-.226-.373-.317-.809-.275-1.308ZM133.831 86.177l8.14 2.074-.28 1.1-6.466-1.647 5.079 7.09-.249.977-8.14-2.074.281-1.1 6.481 1.65-5.099-7.078.253-.992ZM129.725 98.8c.324-.767.782-1.384 1.374-1.852a4.116 4.116 0 0 1 1.998-.822c.745-.09 1.5.026 2.267.35.776.328 1.386.789 1.83 1.382.444.593.706 1.26.787 2 .076.751-.048 1.509-.372 2.276-.278.658-.657 1.198-1.137 1.621-.48.422-1.04.678-1.679.766l-.201-1.005a2.658 2.658 0 0 0 1.287-.62c.353-.314.627-.702.823-1.163a3.186 3.186 0 0 0 .246-1.651 2.911 2.911 0 0 0-.604-1.489c-.344-.446-.82-.798-1.429-1.056-.609-.258-1.194-.354-1.754-.29a3.019 3.019 0 0 0-1.503.597 3.27 3.27 0 0 0-.998 1.333 3.2 3.2 0 0 0-.262 1.401 2.7 2.7 0 0 0 .437 1.348l-.861.557a3.272 3.272 0 0 1-.62-1.739c-.031-.638.093-1.287.371-1.945ZM127.071 104.276l6.697 3.824-.407.099 1.722-3.015.861.492-3.721 6.517-.861-.492 1.721-3.015.122.401-6.698-3.825.564-.986ZM121.513 112.524l1.489 1.109.273.143 2.49 1.853c.573.427 1.135.592 1.685.496.543-.087 1.051-.447 1.522-1.081.325-.436.561-.905.709-1.407a3.96 3.96 0 0 0 .167-1.431l.986.096a4.429 4.429 0 0 1-.25 1.728 5.83 5.83 0 0 1-.883 1.697c-.65.872-1.368 1.382-2.154 1.527-.785.161-1.618-.086-2.499-.742l-4.184-3.115.649-.873Zm1.665-2.37c.376-.505.785-.885 1.228-1.141.445-.241.886-.351 1.324-.331.446.026.861.182 1.246.469.351.261.607.578.768.951.164.387.191.833.082 1.337-.107.519-.399 1.099-.877 1.741l-1.729 2.323-.68-.506 1.71-2.298c.484-.65.706-1.19.666-1.618a1.407 1.407 0 0 0-.583-1.013 1.38 1.38 0 0 0-1.258-.238c-.454.127-.882.461-1.283 1-.382.513-.595 1.04-.638 1.58-.04.554.098 1.083.416 1.585l-.782-.262a2.66 2.66 0 0 1-.397-1.692c.047-.617.31-1.246.787-1.887ZM119.814 114.618l5.94 5.94-.804.803-4.717-4.718.746 8.689-.713.713-5.939-5.94.803-.803 4.729 4.729-.769-8.689.724-.724Zm4.107 9.492c.498-.497 1.026-.776 1.584-.837.558-.045 1.082.162 1.572.623l-.577.577c-.309-.295-.652-.427-1.029-.396-.377.03-.728.207-1.052.531-.325.325-.502.675-.532 1.052-.038.385.09.732.385 1.041l-.577.577c-.468-.482-.676-1.007-.623-1.572.061-.558.343-1.09.849-1.596ZM110.283 123.227l4.664 6.986-3.088 2.061c-.789.527-1.511.791-2.165.792-.662.006-1.189-.284-1.58-.869-.379-.568-.455-1.152-.227-1.753.233-.592.704-1.125 1.414-1.598v.403c-.833.557-1.549.811-2.147.761-.598-.05-1.092-.368-1.483-.953-.402-.604-.495-1.222-.276-1.855.216-.619.785-1.236 1.707-1.852l3.181-2.123Zm-.421 1.358-2.222 1.484c-.595.397-.981.789-1.158 1.177-.18.402-.128.816.156 1.242.285.426.629.644 1.035.656.405.012.905-.181 1.499-.578l2.316-1.546-1.626-2.435Zm2.097 3.141-2.103 1.403c-.541.362-.886.739-1.033 1.133-.157.399-.105.794.156 1.184.261.391.602.586 1.025.585.415.006.892-.172 1.433-.533l2.103-1.404-1.581-2.368ZM103.575 127.508l3.643 7.569-1.023.492-1.61-3.345-4.772 2.297 1.61 3.345-1.024.493-3.643-7.569 1.024-.493 1.61 3.345 4.772-2.297-1.61-3.345 1.023-.492ZM95.63 131.149l2.412 8.047-1.089.326-1.915-6.391-3.464 8.003-.966.289-2.411-8.046 1.088-.326 1.92 6.406 3.444-8.014.981-.294ZM84.028 133.92c-.686.103-1.287.302-1.803.596-.527.296-.926.653-1.198 1.071-.27.43-.366.892-.291 1.388.095.632.44 1.093 1.034 1.38.583.29 1.35.363 2.299.219l.001-.308a3.918 3.918 0 0 0-1.4.471 2.51 2.51 0 0 0-.906.865c-.206.345-.279.722-.216 1.134.07.464.288.835.654 1.114.367.29.833.484 1.398.581.555.1 1.163.089 1.824-.033.485-.073.96-.215 1.424-.426a7.07 7.07 0 0 0 1.354-.787l-.448-.822a5.932 5.932 0 0 1-1.24.689 5.705 5.705 0 0 1-1.252.384 4.397 4.397 0 0 1-1.242.026c-.374-.051-.678-.167-.91-.348a1.047 1.047 0 0 1-.432-.711 1.045 1.045 0 0 1 .162-.753c.138-.226.358-.416.658-.569.3-.153.656-.261 1.068-.323l1.344-.204-.124-.822-1.424.215c-.696.105-1.264.062-1.703-.131-.437-.182-.69-.494-.757-.937a1.232 1.232 0 0 1 .192-.87c.175-.275.441-.51.8-.704.36-.195.796-.336 1.311-.425a5.896 5.896 0 0 1 1.6-.016c.551.079 1.05.235 1.495.47l.237-.893a4.69 4.69 0 0 0-1.683-.539 6.565 6.565 0 0 0-1.826.018ZM43.022 125.584c.12.089.229.184.328.284.104.091.213.205.324.341l-.707.79a2.29 2.29 0 0 0-.386-.367 1.382 1.382 0 0 0-1.258-.238c-.47.129-1 .466-1.59 1.01-.598.553-1.286 1.317-2.066 2.292l-2.994 3.755-6.096-4.537 6.687-8.985.937.698-6.267 8.419-.053-.438 4.8 3.573-.431.098 2.551-3.187a28.656 28.656 0 0 1 1.931-2.193c.579-.58 1.12-1.022 1.624-1.324.499-.294.968-.443 1.41-.447.435.005.854.157 1.256.456ZM34.327 118.95l-6.046 5.831-.789-.818 4.803-4.631-8.701.589-.7-.726 6.047-5.831.788.818-4.814 4.642 8.702-.611.71.737ZM25.833 108.934c.484.677.772 1.389.862 2.138a4.12 4.12 0 0 1-.341 2.134c-.312.682-.806 1.266-1.482 1.75-.685.491-1.397.771-2.134.84a4.001 4.001 0 0 1-2.117-.373c-.68-.326-1.263-.828-1.747-1.504-.416-.581-.68-1.186-.79-1.816a3.134 3.134 0 0 1 .223-1.832l.962.353a2.67 2.67 0 0 0-.143 1.422c.084.465.272.901.564 1.308.348.486.774.843 1.279 1.072a2.91 2.91 0 0 0 1.585.262c.56-.06 1.11-.283 1.647-.668.538-.385.925-.833 1.162-1.345a3.02 3.02 0 0 0 .276-1.594 3.272 3.272 0 0 0-.616-1.547 3.208 3.208 0 0 0-1.058-.954 2.695 2.695 0 0 0-1.379-.331l-.025-1.025a3.266 3.266 0 0 1 1.806.379c.561.306 1.05.75 1.466 1.331ZM22.522 103.75l-6.766 3.7.128-.399 1.666 3.047-.87.476-3.6-6.584.87-.476 1.665 3.046-.405-.107 6.767-3.7.545.997ZM18.444 94.797l-1.722.69-.265.158-2.88 1.156c-.664.266-1.098.658-1.304 1.177-.21.51-.167 1.13.127 1.863.202.505.479.952.83 1.34.35.387.729.684 1.133.89l-.597.791a4.434 4.434 0 0 1-1.344-1.116 5.847 5.847 0 0 1-.985-1.639c-.405-1.01-.464-1.888-.177-2.636.272-.752.918-1.334 1.938-1.743l4.841-1.941.405 1.01Zm1.152 2.658c.235.584.345 1.131.332 1.642-.027.506-.164.939-.409 1.302a2.278 2.278 0 0 1-1.05.818c-.407.163-.81.216-1.213.159-.416-.063-.81-.273-1.183-.629-.387-.362-.729-.914-1.027-1.657l-1.078-2.688.787-.315 1.066 2.658c.302.752.646 1.223 1.033 1.413.382.18.771.19 1.168.032.445-.179.732-.495.86-.949.128-.454.068-.992-.183-1.616-.238-.594-.576-1.05-1.014-1.369a2.556 2.556 0 0 0-1.57-.474l.633-.53a2.658 2.658 0 0 1 1.65.546c.501.362.9.914 1.198 1.657ZM17.57 92.317l-8.17 1.95-.264-1.106 6.49-1.548-7.794-3.914-.233-.98 8.17-1.95.264 1.104-6.506 1.553 7.806 3.894.237.997ZM7.333 90.844c.163.685.125 1.281-.116 1.788-.254.5-.705.837-1.354 1.014l-.19-.794c.413-.109.705-.332.877-.67.172-.336.205-.728.098-1.174-.106-.446-.312-.781-.618-1.004-.308-.234-.67-.306-1.088-.218l-.19-.793c.657-.146 1.212-.048 1.666.293.444.344.75.863.915 1.558ZM15.215 79.528l-8.396.259-.115-3.71c-.03-.95.129-1.701.475-2.256.345-.566.87-.86 1.573-.88.683-.022 1.218.223 1.608.734.378.511.58 1.193.607 2.046l-.343-.214c-.03-1.002.133-1.743.492-2.224.359-.48.89-.732 1.594-.753.724-.023 1.298.226 1.72.747.41.51.632 1.32.667 2.428l.118 3.823Zm-.93-1.076-.082-2.67c-.022-.715-.151-1.25-.386-1.606-.246-.366-.625-.54-1.137-.525-.512.016-.88.193-1.104.53-.224.338-.326.864-.303 1.579l.085 2.782 2.927-.09Zm-3.774.117-.078-2.527c-.02-.65-.158-1.143-.414-1.476-.256-.344-.619-.51-1.088-.495-.469.015-.815.201-1.039.56-.224.349-.326.848-.306 1.499l.078 2.526 2.847-.088ZM15.101 71.56l-8.351-.904.122-1.13 3.69.4.571-5.265-3.69-.4.122-1.13 8.351.906-.122 1.13-3.69-.4-.571 5.264 3.69.4-.122 1.13ZM16.216 62.71l-8.108-2.196.297-1.097 6.44 1.745-4.97-7.165.263-.973 8.107 2.197-.297 1.096-6.455-1.749 4.99 7.154-.267.989ZM19.915 51.538c.273-.637.42-1.253.442-1.847.026-.603-.068-1.13-.281-1.581a1.975 1.975 0 0 0-1.027-.978c-.588-.252-1.16-.2-1.718.153-.553.343-1.018.957-1.395 1.84l.26.163c.214-.5.327-.98.337-1.44.011-.459-.076-.867-.26-1.224a1.654 1.654 0 0 0-.849-.78 1.663 1.663 0 0 0-1.292-.03c-.44.16-.85.454-1.23.883-.377.419-.687.942-.931 1.568a5.39 5.39 0 0 0-.388 1.435 7.117 7.117 0 0 0-.042 1.566l.935.051a5.913 5.913 0 0 1 .066-1.416c.068-.458.179-.88.332-1.267.18-.422.391-.779.632-1.07.24-.292.498-.489.774-.591.28-.113.558-.11.832.007.255.11.44.287.555.533.12.237.165.523.138.86a3.49 3.49 0 0 1-.287 1.078l-.534 1.25.765.327.566-1.324c.276-.648.612-1.107 1.007-1.38.384-.276.783-.326 1.195-.15.284.122.497.329.64.621.14.293.2.643.177 1.05-.024.408-.133.855-.329 1.34-.205.48-.481.936-.828 1.368a4.561 4.561 0 0 1-1.186 1.024l.635.672a4.686 4.686 0 0 0 1.343-1.149 6.552 6.552 0 0 0 .946-1.562ZM45.576 22.596c-.135.063-.27.114-.405.152-.13.05-.282.09-.455.123l-.357-.999c.183-.037.352-.092.506-.163.436-.202.706-.533.81-.993.11-.474.067-1.1-.13-1.88-.2-.788-.543-1.757-1.029-2.908l-1.872-4.423 6.897-3.193 4.706 10.163-1.06.49-4.41-9.524.41.163-5.43 2.515.12-.426 1.584 3.762a28.641 28.641 0 0 1 1.006 2.744c.234.785.364 1.471.39 2.059.02.578-.073 1.062-.28 1.452-.212.38-.546.675-1 .886ZM55.701 18.052l-2.197-8.107 1.097-.297 1.745 6.44 3.675-7.91.973-.263 2.197 8.108-1.096.297-1.75-6.455-3.655 7.92-.989.267ZM68.32 15.453c-.826.099-1.59.008-2.289-.273a4.12 4.12 0 0 1-1.706-1.326c-.448-.602-.722-1.316-.821-2.142-.1-.837-.004-1.595.29-2.275a4.001 4.001 0 0 1 1.346-1.676c.614-.44 1.334-.708 2.16-.807.71-.085 1.366-.025 1.971.182a3.137 3.137 0 0 1 1.5 1.077l-.774.673c-.337-.39-.729-.66-1.177-.81a3.203 3.203 0 0 0-1.418-.135 3.171 3.171 0 0 0-1.555.605 2.908 2.908 0 0 0-.992 1.263c-.217.52-.286 1.11-.208 1.766.08.656.286 1.212.62 1.666.333.454.755.79 1.265 1.008a3.27 3.27 0 0 0 1.652.205c.498-.06.946-.216 1.346-.468.4-.252.717-.602.953-1.05l.911.472a3.27 3.27 0 0 1-1.202 1.4c-.538.345-1.163.56-1.872.645ZM74.775 15.012l.03-7.712.286.305-3.472-.013.004-.992 7.504.029-.004.992-3.472-.013.29-.303-.03 7.712-1.136-.005ZM84.742 15.763l.228-1.842-.01-.307.382-3.08c.088-.71-.046-1.28-.4-1.711-.345-.43-.91-.693-1.692-.79a4.441 4.441 0 0 0-1.574.079c-.51.12-.952.306-1.327.56l-.404-.904a4.436 4.436 0 0 1 1.627-.636 5.836 5.836 0 0 1 1.91-.07c1.08.134 1.878.507 2.393 1.119.527.603.723 1.45.588 2.54l-.641 5.176-1.08-.134Zm-2.884-.277c-.624-.077-1.157-.245-1.598-.504-.429-.268-.743-.597-.942-.987-.197-.401-.266-.84-.207-1.316a2.33 2.33 0 0 1 .447-1.138c.256-.333.63-.577 1.122-.731.504-.163 1.153-.196 1.947-.097l2.874.356-.104.841-2.842-.352c-.805-.1-1.384-.026-1.737.22-.342.248-.54.584-.592 1.007-.06.476.079.88.414 1.212.335.332.836.539 1.503.622.635.078 1.198.003 1.689-.226.502-.239.893-.62 1.173-1.145l.158.81c-.28.524-.705.918-1.275 1.18-.56.264-1.236.347-2.03.248ZM87.131 16.126l2.228-8.1 1.096.302-1.77 6.433 7.184-4.944.972.268-2.227 8.099-1.096-.302 1.774-6.448-7.173 4.963-.988-.271Zm6.222-8.262c-.678-.187-1.182-.508-1.51-.963-.316-.463-.394-1.021-.237-1.675l.787.217c-.103.414-.048.777.165 1.09.212.313.54.53.982.652.442.122.835.103 1.177-.058.354-.157.592-.44.715-.848l.787.216c-.188.645-.542 1.085-1.06 1.318-.515.224-1.117.24-1.806.051ZM99.459 20.17l3.81-7.486 3.308 1.684c.846.43 1.429.93 1.75 1.5.33.575.335 1.176.015 1.804-.309.608-.782.96-1.417 1.056-.63.086-1.325-.065-2.086-.452l.352-.198c.894.455 1.465.956 1.714 1.501.249.546.214 1.132-.106 1.76-.329.646-.823 1.029-1.482 1.148-.645.115-1.462-.08-2.45-.583l-3.408-1.734Zm1.39-.298 2.381 1.212c.637.324 1.168.469 1.593.434.439-.04.775-.288 1.007-.745.232-.456.254-.863.066-1.223-.188-.359-.601-.7-1.238-1.025l-2.481-1.262-1.328 2.609Zm1.713-3.365 2.253 1.147c.58.295 1.077.41 1.493.347.425-.06.744-.298.957-.716.213-.419.215-.812.008-1.18-.198-.365-.586-.694-1.166-.99l-2.253-1.146-1.292 2.538ZM106.468 23.87l4.817-6.883.93.652-2.128 3.04 4.339 3.038 2.128-3.042.931.652-4.816 6.882-.931-.652 2.128-3.04-4.339-3.037-2.128 3.04-.931-.65ZM113.607 29.025l5.809-6.068.82.786-4.614 4.82 8.671-.937.728.697-5.809 6.068-.82-.785 4.625-4.832-8.67.959-.74-.708ZM121.711 37.67c.43.543.901.966 1.412 1.27.518.31 1.026.48 1.524.508.506.021.956-.124 1.349-.435.502-.397.731-.924.687-1.583-.038-.65-.355-1.351-.95-2.104l-.269.15c.338.428.706.755 1.104.984a2.51 2.51 0 0 0 1.2.357c.402.009.765-.116 1.092-.374.368-.29.582-.664.643-1.12.07-.463.007-.964-.188-1.503-.189-.531-.5-1.054-.934-1.568a5.384 5.384 0 0 0-1.076-1.025 7.088 7.088 0 0 0-1.355-.785l-.491.797a5.89 5.89 0 0 1 1.212.734c.37.279.688.578.955.897.284.36.497.715.638 1.066.142.35.191.672.15.963-.035.3-.17.542-.404.727-.218.172-.462.25-.734.233-.264-.008-.538-.104-.82-.29a3.49 3.49 0 0 1-.81-.766l-.844-1.067-.652.516.893 1.13c.436.552.68 1.067.73 1.543.059.47-.087.845-.438 1.122-.243.192-.527.28-.851.265-.325-.015-.661-.13-1.008-.345-.347-.215-.687-.525-1.019-.928a5.87 5.87 0 0 1-.807-1.382 4.562 4.562 0 0 1-.333-1.53l-.894.236c.008.579.131 1.155.368 1.73.236.574.543 1.1.92 1.576Z" fill="#fff"/></svg>